<svg xmlns="http://www.w3.org/2000/svg" xmlns:xlink="http://www.w3.org/1999/xlink" width="1078" zoomAndPan="magnify" viewBox="0 0 808.5 176.249993" height="235" preserveAspectRatio="xMidYMid meet" version="1.0"><defs><g/><clipPath id="954392aa4e"><path d="M 481 0.730469 L 726.925781 0.730469 L 726.925781 141.96875 L 481 141.96875 Z M 481 0.730469 " clip-rule="nonzero"/></clipPath><clipPath id="a489ee7edf"><path d="M 177 38 L 245.925781 38 L 245.925781 103 L 177 103 Z M 177 38 " clip-rule="nonzero"/></clipPath><clipPath id="116d61fd08"><rect x="0" width="246" y="0" height="142"/></clipPath><clipPath id="14a0692010"><path d="M 0.65625 0.730469 L 495 0.730469 L 495 141.96875 L 0.65625 141.96875 Z M 0.65625 0.730469 " clip-rule="nonzero"/></clipPath><clipPath id="0c7bd81a2d"><rect x="0" width="495" y="0" height="142"/></clipPath><clipPath id="460bbeb1df"><path d="M 561 50 L 584 50 L 584 104.359375 L 561 104.359375 Z M 561 50 " clip-rule="nonzero"/></clipPath><clipPath id="c9d588757c"><path d="M 561 94 L 584 94 L 584 104.359375 L 561 104.359375 Z M 561 94 " clip-rule="nonzero"/></clipPath><clipPath id="48bd94582e"><path d="M 581 39.828125 L 594.964844 39.828125 L 594.964844 54 L 581 54 Z M 581 39.828125 " clip-rule="nonzero"/></clipPath><clipPath id="d0c758d203"><path d="M 563 39.828125 L 582 39.828125 L 582 54 L 563 54 Z M 563 39.828125 " clip-rule="nonzero"/></clipPath><clipPath id="e8be00fc07"><path d="M 550.699219 39.828125 L 564 39.828125 L 564 54 L 550.699219 54 Z M 550.699219 39.828125 " clip-rule="nonzero"/></clipPath><clipPath id="5e5b3c7638"><rect x="0" width="727" y="0" height="142"/></clipPath></defs><g transform="matrix(1, 0, 0, 1, 40, 16)"><g clip-path="url(#5e5b3c7638)"><g clip-path="url(#954392aa4e)"><g transform="matrix(1, 0, 0, 1, 481, 0)"><g clip-path="url(#116d61fd08)"><g fill="#333f48" fill-opacity="1"><g transform="translate(1.393326, 102.096868)"><g><path d="M 32.71875 1.15625 C 29.519531 1.15625 26.71875 0.398438 24.3125 -1.109375 C 21.914062 -2.617188 20.210938 -4.738281 19.203125 -7.46875 L 0 -62.25 L 17.96875 -62.25 L 31.828125 -15.921875 C 31.953125 -15.617188 32.085938 -15.394531 32.234375 -15.25 C 32.378906 -15.101562 32.539062 -15.03125 32.71875 -15.03125 C 32.957031 -15.03125 33.164062 -15.101562 33.34375 -15.25 C 33.519531 -15.394531 33.640625 -15.617188 33.703125 -15.921875 L 47.578125 -62.25 L 65.453125 -62.25 L 46.328125 -7.5625 C 45.378906 -4.769531 43.6875 -2.617188 41.25 -1.109375 C 38.820312 0.398438 35.976562 1.15625 32.71875 1.15625 Z M 32.71875 1.15625 "/></g></g></g><g fill="#333f48" fill-opacity="1"><g transform="translate(66.840825, 102.096868)"><g/></g></g><g fill="#333f48" fill-opacity="1"><g transform="translate(90.405029, 102.096868)"><g/></g></g><g fill="#333f48" fill-opacity="1"><g transform="translate(113.97211, 102.096868)"><g><path d="M 4.71875 0 L 4.71875 -62.25 L 29.25 -62.25 C 35.832031 -62.25 41.539062 -60.914062 46.375 -58.25 C 51.207031 -55.582031 54.941406 -51.90625 57.578125 -47.21875 C 60.210938 -42.53125 61.53125 -37.164062 61.53125 -31.125 C 61.53125 -25.070312 60.210938 -19.703125 57.578125 -15.015625 C 54.941406 -10.335938 51.207031 -6.664062 46.375 -4 C 41.539062 -1.332031 35.832031 0 29.25 0 Z M 21.703125 -13.78125 L 28.546875 -13.78125 C 31.628906 -13.78125 34.351562 -14.460938 36.71875 -15.828125 C 39.09375 -17.191406 40.960938 -19.191406 42.328125 -21.828125 C 43.691406 -24.460938 44.375 -27.5625 44.375 -31.125 C 44.375 -34.738281 43.691406 -37.832031 42.328125 -40.40625 C 40.960938 -42.988281 39.09375 -44.976562 36.71875 -46.375 C 34.351562 -47.769531 31.628906 -48.46875 28.546875 -48.46875 L 21.703125 -48.46875 Z M 21.703125 -13.78125 "/></g></g></g><g clip-path="url(#a489ee7edf)"><g fill="#333f48" fill-opacity="1"><g transform="translate(177.995602, 102.096868)"><g><path d="M 0 0 L 20 -54.6875 C 21.132812 -57.59375 22.914062 -59.769531 25.34375 -61.21875 C 27.769531 -62.675781 30.523438 -63.40625 33.609375 -63.40625 C 36.691406 -63.40625 39.460938 -62.691406 41.921875 -61.265625 C 44.378906 -59.847656 46.144531 -57.6875 47.21875 -54.78125 L 67.21875 0 L 49 0 L 45.34375 -11.375 L 21.515625 -11.375 L 17.703125 0 Z M 25.515625 -24.890625 L 41.4375 -24.890625 L 34.59375 -47.390625 C 34.53125 -47.628906 34.410156 -47.804688 34.234375 -47.921875 C 34.054688 -48.046875 33.847656 -48.109375 33.609375 -48.109375 C 33.429688 -48.109375 33.269531 -48.046875 33.125 -47.921875 C 32.976562 -47.804688 32.84375 -47.628906 32.71875 -47.390625 Z M 25.515625 -24.890625 "/></g></g></g></g></g></g></g><g clip-path="url(#14a0692010)"><g><g clip-path="url(#0c7bd81a2d)"><g fill="#1b365d" fill-opacity="1"><g transform="translate(1.122029, 102.101322)"><g><path d="M 36.625 0 C 31.289062 0 26.519531 -0.769531 22.3125 -2.3125 C 18.101562 -3.851562 14.515625 -6.015625 11.546875 -8.796875 C 8.585938 -11.585938 6.320312 -14.878906 4.75 -18.671875 C 3.1875 -22.460938 2.40625 -26.609375 2.40625 -31.109375 C 2.40625 -35.617188 3.1875 -39.769531 4.75 -43.5625 C 6.320312 -47.351562 8.585938 -50.640625 11.546875 -53.421875 C 14.515625 -56.203125 18.101562 -58.363281 22.3125 -59.90625 C 26.519531 -61.445312 31.289062 -62.21875 36.625 -62.21875 L 46.140625 -62.21875 L 46.140625 -48.453125 L 37.15625 -48.453125 C 34.375 -48.453125 31.898438 -48.003906 29.734375 -47.109375 C 27.566406 -46.222656 25.742188 -44.992188 24.265625 -43.421875 C 22.785156 -41.847656 21.660156 -40.007812 20.890625 -37.90625 C 20.117188 -35.800781 19.734375 -33.535156 19.734375 -31.109375 C 19.734375 -28.679688 20.117188 -26.398438 20.890625 -24.265625 C 21.660156 -22.128906 22.785156 -20.289062 24.265625 -18.75 C 25.742188 -17.207031 27.566406 -15.992188 29.734375 -15.109375 C 31.898438 -14.222656 34.375 -13.78125 37.15625 -13.78125 L 46.140625 -13.78125 L 46.140625 0 Z M 18.140625 18.046875 L 26.9375 -2.84375 L 40.359375 -2.84375 L 31.5625 18.046875 Z M 18.140625 18.046875 "/></g></g></g><g fill="#1b365d" fill-opacity="1"><g transform="translate(48.049331, 102.101322)"><g><path d="M 31.640625 1.0625 C 26.304688 1.0625 21.59375 0.0078125 17.5 -2.09375 C 13.414062 -4.195312 10.21875 -7.1875 7.90625 -11.0625 C 5.59375 -14.945312 4.4375 -19.523438 4.4375 -24.796875 L 4.4375 -62.21875 L 21.25 -62.21875 L 21.25 -24 C 21.25 -21.925781 21.675781 -20.046875 22.53125 -18.359375 C 23.394531 -16.671875 24.59375 -15.335938 26.125 -14.359375 C 27.664062 -13.378906 29.503906 -12.890625 31.640625 -12.890625 C 33.710938 -12.890625 35.519531 -13.378906 37.0625 -14.359375 C 38.601562 -15.335938 39.789062 -16.671875 40.625 -18.359375 C 41.457031 -20.046875 41.875 -21.925781 41.875 -24 L 41.875 -62.21875 L 58.671875 -62.21875 L 58.671875 -24.796875 C 58.671875 -19.523438 57.515625 -14.945312 55.203125 -11.0625 C 52.890625 -7.1875 49.703125 -4.195312 45.640625 -2.09375 C 41.585938 0.0078125 36.921875 1.0625 31.640625 1.0625 Z M 31.640625 1.0625 "/></g></g></g><g fill="#1b365d" fill-opacity="1"><g transform="translate(110.263575, 102.101322)"><g><path d="M 4.71875 0 L 4.71875 -62.21875 L 21.6875 -62.21875 L 21.6875 -37.6875 L 30.484375 -37.6875 C 32.023438 -37.6875 33.390625 -38.023438 34.578125 -38.703125 C 35.765625 -39.390625 36.726562 -40.351562 37.46875 -41.59375 C 38.207031 -42.84375 38.578125 -44.359375 38.578125 -46.140625 L 38.578125 -62.21875 L 55.5625 -62.21875 L 55.5625 -45.875 C 55.5625 -42.070312 54.65625 -38.628906 52.84375 -35.546875 C 51.039062 -32.472656 48.625 -29.957031 45.59375 -28 L 51.640625 -15.203125 C 51.941406 -14.671875 52.328125 -14.253906 52.796875 -13.953125 C 53.273438 -13.660156 53.835938 -13.515625 54.484375 -13.515625 L 59.640625 -13.515625 L 59.640625 0 L 50.21875 0 C 46.726562 0 43.914062 -0.648438 41.78125 -1.953125 C 39.644531 -3.253906 38.015625 -5.003906 36.890625 -7.203125 L 28.890625 -24 C 28.535156 -24 28.191406 -24 27.859375 -24 C 27.535156 -24 27.164062 -24 26.75 -24 L 21.6875 -24 L 21.6875 0 Z M 4.71875 0 "/></g></g></g><g fill="#1b365d" fill-opacity="1"><g transform="translate(169.36711, 102.101322)"><g><path d="M 31.640625 1.0625 C 26.304688 1.0625 21.59375 0.0078125 17.5 -2.09375 C 13.414062 -4.195312 10.21875 -7.1875 7.90625 -11.0625 C 5.59375 -14.945312 4.4375 -19.523438 4.4375 -24.796875 L 4.4375 -62.21875 L 21.25 -62.21875 L 21.25 -24 C 21.25 -21.925781 21.675781 -20.046875 22.53125 -18.359375 C 23.394531 -16.671875 24.59375 -15.335938 26.125 -14.359375 C 27.664062 -13.378906 29.503906 -12.890625 31.640625 -12.890625 C 33.710938 -12.890625 35.519531 -13.378906 37.0625 -14.359375 C 38.601562 -15.335938 39.789062 -16.671875 40.625 -18.359375 C 41.457031 -20.046875 41.875 -21.925781 41.875 -24 L 41.875 -62.21875 L 58.671875 -62.21875 L 58.671875 -24.796875 C 58.671875 -19.523438 57.515625 -14.945312 55.203125 -11.0625 C 52.890625 -7.1875 49.703125 -4.195312 45.640625 -2.09375 C 41.585938 0.0078125 36.921875 1.0625 31.640625 1.0625 Z M 31.640625 1.0625 "/></g></g></g><g fill="#1b365d" fill-opacity="1"><g transform="translate(231.581339, 102.101322)"><g><path d="M 4.71875 0 L 4.71875 -62.21875 L 33.59375 -62.21875 C 37.976562 -62.21875 41.945312 -61.285156 45.5 -59.421875 C 49.0625 -57.554688 51.910156 -54.976562 54.046875 -51.6875 C 56.179688 -48.394531 57.25 -44.554688 57.25 -40.171875 C 57.25 -36.378906 56.34375 -32.898438 54.53125 -29.734375 C 52.726562 -26.566406 50.316406 -24.003906 47.296875 -22.046875 L 51.46875 -15.109375 C 51.820312 -14.578125 52.21875 -14.175781 52.65625 -13.90625 C 53.101562 -13.644531 53.710938 -13.515625 54.484375 -13.515625 L 59.46875 -13.515625 L 59.46875 0 L 50.21875 0 C 47.257812 0 44.625 -0.664062 42.3125 -2 C 40 -3.332031 38.222656 -5.066406 36.984375 -7.203125 L 30.671875 -18.046875 C 30.316406 -18.046875 29.957031 -18.046875 29.59375 -18.046875 C 29.238281 -18.046875 28.914062 -18.046875 28.625 -18.046875 L 21.6875 -18.046875 L 21.6875 0 Z M 21.6875 -31.5625 L 31.828125 -31.5625 C 33.304688 -31.5625 34.679688 -31.898438 35.953125 -32.578125 C 37.234375 -33.253906 38.242188 -34.242188 38.984375 -35.546875 C 39.722656 -36.859375 40.09375 -38.375 40.09375 -40.09375 C 40.09375 -41.8125 39.707031 -43.289062 38.9375 -44.53125 C 38.164062 -45.78125 37.15625 -46.742188 35.90625 -47.421875 C 34.664062 -48.109375 33.304688 -48.453125 31.828125 -48.453125 L 21.6875 -48.453125 Z M 21.6875 -31.5625 "/></g></g></g><g fill="#1b365d" fill-opacity="1"><g transform="translate(291.484778, 102.101322)"><g><path d="M 35.734375 1.15625 C 30.816406 1.15625 26.3125 0.339844 22.21875 -1.28125 C 18.132812 -2.914062 14.625 -5.195312 11.6875 -8.125 C 8.75 -11.0625 6.46875 -14.484375 4.84375 -18.390625 C 3.21875 -22.304688 2.40625 -26.546875 2.40625 -31.109375 C 2.40625 -35.671875 3.21875 -39.921875 4.84375 -43.859375 C 6.46875 -47.804688 8.75 -51.226562 11.6875 -54.125 C 14.625 -57.03125 18.132812 -59.296875 22.21875 -60.921875 C 26.3125 -62.554688 30.816406 -63.375 35.734375 -63.375 C 40.710938 -63.375 45.226562 -62.554688 49.28125 -60.921875 C 53.34375 -59.296875 56.851562 -57.03125 59.8125 -54.125 C 62.78125 -51.226562 65.0625 -47.804688 66.65625 -43.859375 C 68.257812 -39.921875 69.0625 -35.671875 69.0625 -31.109375 C 69.0625 -26.546875 68.257812 -22.304688 66.65625 -18.390625 C 65.0625 -14.484375 62.78125 -11.0625 59.8125 -8.125 C 56.851562 -5.195312 53.34375 -2.914062 49.28125 -1.28125 C 45.226562 0.339844 40.710938 1.15625 35.734375 1.15625 Z M 35.734375 -12.890625 C 38.160156 -12.890625 40.363281 -13.347656 42.34375 -14.265625 C 44.332031 -15.179688 46.050781 -16.484375 47.5 -18.171875 C 48.957031 -19.867188 50.054688 -21.8125 50.796875 -24 C 51.535156 -26.195312 51.90625 -28.566406 51.90625 -31.109375 C 51.90625 -33.660156 51.535156 -36.046875 50.796875 -38.265625 C 50.054688 -40.484375 48.957031 -42.421875 47.5 -44.078125 C 46.050781 -45.742188 44.332031 -47.035156 42.34375 -47.953125 C 40.363281 -48.867188 38.160156 -49.328125 35.734375 -49.328125 C 33.359375 -49.328125 31.164062 -48.867188 29.15625 -47.953125 C 27.144531 -47.035156 25.425781 -45.742188 24 -44.078125 C 22.570312 -42.421875 21.472656 -40.484375 20.703125 -38.265625 C 19.941406 -36.046875 19.5625 -33.660156 19.5625 -31.109375 C 19.5625 -28.566406 19.941406 -26.195312 20.703125 -24 C 21.472656 -21.8125 22.570312 -19.867188 24 -18.171875 C 25.425781 -16.484375 27.144531 -15.179688 29.15625 -14.265625 C 31.164062 -13.347656 33.359375 -12.890625 35.734375 -12.890625 Z M 35.734375 -12.890625 "/></g></g></g><g fill="#1b365d" fill-opacity="1"><g transform="translate(362.142382, 102.101322)"><g><path d="M 32.71875 1.15625 C 29.507812 1.15625 26.707031 0.398438 24.3125 -1.109375 C 21.914062 -2.617188 20.210938 -4.738281 19.203125 -7.46875 L 0 -62.21875 L 17.953125 -62.21875 L 31.828125 -15.90625 C 31.941406 -15.613281 32.070312 -15.390625 32.21875 -15.234375 C 32.363281 -15.085938 32.53125 -15.015625 32.71875 -15.015625 C 32.945312 -15.015625 33.148438 -15.085938 33.328125 -15.234375 C 33.503906 -15.390625 33.625 -15.613281 33.6875 -15.90625 L 47.5625 -62.21875 L 65.421875 -62.21875 L 46.3125 -7.5625 C 45.363281 -4.769531 43.671875 -2.617188 41.234375 -1.109375 C 38.804688 0.398438 35.96875 1.15625 32.71875 1.15625 Z M 32.71875 1.15625 "/></g></g></g><g fill="#1b365d" fill-opacity="1"><g transform="translate(426.66746, 102.101322)"><g><path d="M 0 0 L 20 -54.671875 C 21.125 -57.566406 22.898438 -59.738281 25.328125 -61.1875 C 27.765625 -62.644531 30.519531 -63.375 33.59375 -63.375 C 36.675781 -63.375 39.445312 -62.660156 41.90625 -61.234375 C 44.363281 -59.816406 46.128906 -57.65625 47.203125 -54.75 L 67.203125 0 L 48.984375 0 L 45.328125 -11.375 L 21.515625 -11.375 L 17.6875 0 Z M 25.515625 -24.890625 L 41.421875 -24.890625 L 34.578125 -47.375 C 34.515625 -47.613281 34.394531 -47.789062 34.21875 -47.90625 C 34.039062 -48.03125 33.832031 -48.09375 33.59375 -48.09375 C 33.414062 -48.09375 33.253906 -48.03125 33.109375 -47.90625 C 32.960938 -47.789062 32.832031 -47.613281 32.71875 -47.375 Z M 25.515625 -24.890625 "/></g></g></g></g></g></g><g clip-path="url(#460bbeb1df)"><path fill="#1b365d" d="M 561.773438 50.945312 L 583.917969 50.945312 L 583.917969 104.09375 L 561.773438 104.09375 Z M 561.773438 50.945312 " fill-opacity="1" fill-rule="nonzero"/></g><path fill="#ffffff" d="M 583.917969 58.972656 L 583.917969 63.566406 L 561.773438 69.492188 L 561.773438 64.894531 Z M 583.917969 58.972656 " fill-opacity="1" fill-rule="nonzero"/><path fill="#ffffff" d="M 583.917969 50.113281 L 583.917969 54.707031 L 561.773438 60.632812 L 561.773438 56.039062 Z M 583.917969 50.113281 " fill-opacity="1" fill-rule="nonzero"/><path fill="#ffffff" d="M 583.917969 85.546875 L 583.917969 90.140625 L 561.773438 96.066406 L 561.773438 91.46875 Z M 583.917969 85.546875 " fill-opacity="1" fill-rule="nonzero"/><path fill="#ffffff" d="M 583.917969 67.828125 L 583.917969 72.425781 L 561.773438 78.347656 L 561.773438 73.753906 Z M 583.917969 67.828125 " fill-opacity="1" fill-rule="nonzero"/><path fill="#ffffff" d="M 583.917969 76.6875 L 583.917969 81.28125 L 561.773438 87.207031 L 561.773438 82.613281 Z M 583.917969 76.6875 " fill-opacity="1" fill-rule="nonzero"/><g clip-path="url(#c9d588757c)"><path fill="#ffffff" d="M 583.917969 94.402344 L 583.917969 99 L 564.875 104.09375 L 561.773438 104.09375 L 561.773438 100.328125 Z M 583.917969 94.402344 " fill-opacity="1" fill-rule="nonzero"/></g><path fill="#1b365d" d="M 588.890625 57.71875 L 586.253906 60.722656 L 583.917969 61.351562 L 561.773438 67.277344 L 560.589844 67.597656 L 556.800781 66.3125 L 559.4375 63.3125 L 561.773438 62.679688 L 583.917969 56.757812 L 585.105469 56.4375 Z M 588.890625 57.71875 " fill-opacity="1" fill-rule="nonzero"/><path fill="#1b365d" d="M 581.417969 53.160156 L 561.773438 58.417969 L 560.589844 58.738281 L 556.800781 57.453125 L 559.4375 54.453125 L 564.277344 53.160156 Z M 581.417969 53.160156 " fill-opacity="1" fill-rule="nonzero"/><path fill="#1b365d" d="M 588.890625 84.292969 L 586.253906 87.296875 L 583.917969 87.925781 L 561.773438 93.851562 L 560.589844 94.171875 L 556.800781 92.886719 L 559.4375 89.886719 L 561.773438 89.253906 L 583.917969 83.332031 L 585.105469 83.011719 Z M 588.890625 84.292969 " fill-opacity="1" fill-rule="nonzero"/><path fill="#1b365d" d="M 588.890625 66.578125 L 586.253906 69.578125 L 583.917969 70.210938 L 561.773438 76.132812 L 560.589844 76.457031 L 556.800781 75.171875 L 559.4375 72.171875 L 561.773438 71.539062 L 583.917969 65.613281 L 585.105469 65.292969 Z M 588.890625 66.578125 " fill-opacity="1" fill-rule="nonzero"/><path fill="#1b365d" d="M 588.890625 75.4375 L 586.253906 78.4375 L 583.917969 79.066406 L 561.773438 84.992188 L 560.589844 85.3125 L 556.800781 84.027344 L 559.4375 81.027344 L 561.773438 80.398438 L 583.917969 74.472656 L 585.105469 74.152344 Z M 588.890625 75.4375 " fill-opacity="1" fill-rule="nonzero"/><path fill="#1b365d" d="M 588.890625 93.152344 L 586.253906 96.152344 L 583.917969 96.785156 L 561.773438 102.707031 L 560.589844 103.03125 L 556.800781 101.746094 L 559.4375 98.746094 L 561.773438 98.113281 L 583.917969 92.191406 L 585.105469 91.867188 Z M 588.890625 93.152344 " fill-opacity="1" fill-rule="nonzero"/><g clip-path="url(#48bd94582e)"><path fill="#1b365d" d="M 594.992188 40.976562 L 594.992188 52.050781 C 594.992188 52.199219 594.964844 52.339844 594.90625 52.476562 C 594.851562 52.609375 594.769531 52.730469 594.667969 52.832031 C 594.5625 52.9375 594.445312 53.019531 594.308594 53.074219 C 594.171875 53.128906 594.03125 53.160156 593.882812 53.160156 L 581.703125 53.160156 L 581.703125 39.871094 L 593.882812 39.871094 C 594.03125 39.871094 594.171875 39.898438 594.308594 39.957031 C 594.445312 40.011719 594.5625 40.089844 594.667969 40.195312 C 594.769531 40.300781 594.851562 40.417969 594.90625 40.554688 C 594.964844 40.691406 594.992188 40.832031 594.992188 40.976562 Z M 594.992188 40.976562 " fill-opacity="1" fill-rule="nonzero"/></g><g clip-path="url(#d0c758d203)"><path fill="#1b365d" d="M 563.988281 39.871094 L 581.703125 39.871094 L 581.703125 53.160156 L 563.988281 53.160156 Z M 563.988281 39.871094 " fill-opacity="1" fill-rule="nonzero"/></g><g clip-path="url(#e8be00fc07)"><path fill="#1b365d" d="M 563.988281 39.871094 L 563.988281 53.160156 L 551.808594 53.160156 C 551.660156 53.160156 551.519531 53.128906 551.382812 53.074219 C 551.25 53.019531 551.128906 52.9375 551.027344 52.832031 C 550.921875 52.730469 550.839844 52.609375 550.785156 52.476562 C 550.730469 52.339844 550.699219 52.199219 550.699219 52.050781 L 550.699219 40.976562 C 550.699219 40.832031 550.730469 40.691406 550.785156 40.554688 C 550.839844 40.417969 550.921875 40.300781 551.027344 40.195312 C 551.128906 40.089844 551.25 40.011719 551.382812 39.957031 C 551.519531 39.898438 551.660156 39.871094 551.808594 39.871094 Z M 563.988281 39.871094 " fill-opacity="1" fill-rule="nonzero"/></g></g></g></svg>