<svg xmlns="http://www.w3.org/2000/svg" xmlns:xlink="http://www.w3.org/1999/xlink" width="1509" zoomAndPan="magnify" viewBox="0 0 1131.75 245.999995" height="328" preserveAspectRatio="xMidYMid meet" version="1.0"><defs><g/><clipPath id="b8bb45b42e"><rect x="0" width="346" y="0" height="200"/></clipPath><clipPath id="93f1f87256"><rect x="0" width="695" y="0" height="200"/></clipPath><clipPath id="46412f241f"><path d="M 872 78.519531 L 890.683594 78.519531 L 890.683594 98 L 872 98 Z M 872 78.519531 " clip-rule="nonzero"/></clipPath><clipPath id="715e99b894"><path d="M 847 78.519531 L 873 78.519531 L 873 98 L 847 98 Z M 847 78.519531 " clip-rule="nonzero"/></clipPath><clipPath id="4634fd2dba"><path d="M 828.449219 78.519531 L 848 78.519531 L 848 98 L 828.449219 98 Z M 828.449219 78.519531 " clip-rule="nonzero"/></clipPath></defs><g transform="matrix(1, 0, 0, 1, 731, 23)"><g clip-path="url(#b8bb45b42e)"><g fill="#333f48" fill-opacity="1"><g transform="translate(1.410444, 143.067699)"><g><path d="M 46.015625 1.625 C 41.515625 1.625 37.570312 0.558594 34.1875 -1.5625 C 30.8125 -3.6875 28.414062 -6.664062 27 -10.5 L 0 -87.515625 L 25.25 -87.515625 L 44.765625 -22.375 C 44.929688 -21.957031 45.117188 -21.644531 45.328125 -21.4375 C 45.535156 -21.226562 45.765625 -21.125 46.015625 -21.125 C 46.347656 -21.125 46.640625 -21.226562 46.890625 -21.4375 C 47.140625 -21.644531 47.304688 -21.957031 47.390625 -22.375 L 66.890625 -87.515625 L 92.015625 -87.515625 L 65.140625 -10.625 C 63.804688 -6.707031 61.429688 -3.6875 58.015625 -1.5625 C 54.597656 0.558594 50.597656 1.625 46.015625 1.625 Z M 46.015625 1.625 "/></g></g></g><g fill="#333f48" fill-opacity="1"><g transform="translate(93.427601, 143.067699)"><g/></g></g><g fill="#333f48" fill-opacity="1"><g transform="translate(126.558142, 143.067699)"><g/></g></g><g fill="#333f48" fill-opacity="1"><g transform="translate(159.692728, 143.067699)"><g><path d="M 6.625 0 L 6.625 -87.515625 L 41.140625 -87.515625 C 50.390625 -87.515625 58.410156 -85.640625 65.203125 -81.890625 C 71.992188 -78.140625 77.242188 -72.972656 80.953125 -66.390625 C 84.660156 -59.804688 86.515625 -52.265625 86.515625 -43.765625 C 86.515625 -35.253906 84.660156 -27.707031 80.953125 -21.125 C 77.242188 -14.539062 71.992188 -9.375 65.203125 -5.625 C 58.410156 -1.875 50.390625 0 41.140625 0 Z M 30.5 -19.375 L 40.140625 -19.375 C 44.472656 -19.375 48.304688 -20.332031 51.640625 -22.25 C 54.972656 -24.164062 57.597656 -26.976562 59.515625 -30.6875 C 61.429688 -34.40625 62.390625 -38.765625 62.390625 -43.765625 C 62.390625 -48.847656 61.429688 -53.203125 59.515625 -56.828125 C 57.597656 -60.453125 54.972656 -63.242188 51.640625 -65.203125 C 48.304688 -67.160156 44.472656 -68.140625 40.140625 -68.140625 L 30.5 -68.140625 Z M 30.5 -19.375 "/></g></g></g><g fill="#333f48" fill-opacity="1"><g transform="translate(249.707775, 143.067699)"><g><path d="M 0 0 L 28.125 -76.890625 C 29.707031 -80.972656 32.207031 -84.035156 35.625 -86.078125 C 39.050781 -88.117188 42.929688 -89.140625 47.265625 -89.140625 C 51.597656 -89.140625 55.492188 -88.140625 58.953125 -86.140625 C 62.410156 -84.140625 64.890625 -81.097656 66.390625 -77.015625 L 94.53125 0 L 68.890625 0 L 63.765625 -16 L 30.25 -16 L 24.875 0 Z M 35.890625 -35.015625 L 58.265625 -35.015625 L 48.640625 -66.640625 C 48.554688 -66.972656 48.390625 -67.222656 48.140625 -67.390625 C 47.890625 -67.554688 47.597656 -67.640625 47.265625 -67.640625 C 47.015625 -67.640625 46.785156 -67.554688 46.578125 -67.390625 C 46.367188 -67.222656 46.179688 -66.972656 46.015625 -66.640625 Z M 35.890625 -35.015625 "/></g></g></g></g></g><g transform="matrix(1, 0, 0, 1, 55, 23)"><g clip-path="url(#93f1f87256)"><g fill="#1b365d" fill-opacity="1"><g transform="translate(0.757961, 143.073964)"><g><path d="M 51.484375 0 C 43.984375 0 37.273438 -1.082031 31.359375 -3.25 C 25.453125 -5.414062 20.414062 -8.457031 16.25 -12.375 C 12.082031 -16.289062 8.894531 -20.910156 6.6875 -26.234375 C 4.476562 -31.566406 3.375 -37.398438 3.375 -43.734375 C 3.375 -50.066406 4.476562 -55.898438 6.6875 -61.234375 C 8.894531 -66.566406 12.082031 -71.191406 16.25 -75.109375 C 20.414062 -79.023438 25.453125 -82.066406 31.359375 -84.234375 C 37.273438 -86.398438 43.984375 -87.484375 51.484375 -87.484375 L 64.859375 -87.484375 L 64.859375 -68.109375 L 52.234375 -68.109375 C 48.316406 -68.109375 44.835938 -67.484375 41.796875 -66.234375 C 38.753906 -64.984375 36.191406 -63.253906 34.109375 -61.046875 C 32.035156 -58.835938 30.457031 -56.253906 29.375 -53.296875 C 28.289062 -50.335938 27.75 -47.148438 27.75 -43.734375 C 27.75 -40.316406 28.289062 -37.109375 29.375 -34.109375 C 30.457031 -31.117188 32.035156 -28.539062 34.109375 -26.375 C 36.191406 -24.207031 38.753906 -22.5 41.796875 -21.25 C 44.835938 -20 48.316406 -19.375 52.234375 -19.375 L 64.859375 -19.375 L 64.859375 0 Z M 25.5 25.375 L 37.875 -4 L 56.75 -4 L 44.375 25.375 Z M 25.5 25.375 "/></g></g></g><g fill="#1b365d" fill-opacity="1"><g transform="translate(66.736294, 143.073964)"><g><path d="M 44.484375 1.5 C 36.984375 1.5 30.359375 0.0195312 24.609375 -2.9375 C 18.867188 -5.894531 14.375 -10.101562 11.125 -15.5625 C 7.875 -21.019531 6.25 -27.453125 6.25 -34.859375 L 6.25 -87.484375 L 29.875 -87.484375 L 29.875 -33.734375 C 29.875 -30.828125 30.472656 -28.1875 31.671875 -25.8125 C 32.878906 -23.4375 34.566406 -21.5625 36.734375 -20.1875 C 38.898438 -18.8125 41.484375 -18.125 44.484375 -18.125 C 47.398438 -18.125 49.941406 -18.8125 52.109375 -20.1875 C 54.273438 -21.5625 55.941406 -23.4375 57.109375 -25.8125 C 58.273438 -28.1875 58.859375 -30.828125 58.859375 -33.734375 L 58.859375 -87.484375 L 82.484375 -87.484375 L 82.484375 -34.859375 C 82.484375 -27.453125 80.859375 -21.019531 77.609375 -15.5625 C 74.359375 -10.101562 69.878906 -5.894531 64.171875 -2.9375 C 58.460938 0.0195312 51.898438 1.5 44.484375 1.5 Z M 44.484375 1.5 "/></g></g></g><g fill="#1b365d" fill-opacity="1"><g transform="translate(154.207594, 143.073964)"><g><path d="M 6.625 0 L 6.625 -87.484375 L 30.5 -87.484375 L 30.5 -52.984375 L 42.859375 -52.984375 C 45.023438 -52.984375 46.941406 -53.460938 48.609375 -54.421875 C 50.273438 -55.378906 51.628906 -56.734375 52.671875 -58.484375 C 53.710938 -60.234375 54.234375 -62.359375 54.234375 -64.859375 L 54.234375 -87.484375 L 78.109375 -87.484375 L 78.109375 -64.484375 C 78.109375 -59.148438 76.835938 -54.316406 74.296875 -49.984375 C 71.753906 -45.648438 68.359375 -42.109375 64.109375 -39.359375 L 72.609375 -21.375 C 73.023438 -20.625 73.566406 -20.039062 74.234375 -19.625 C 74.898438 -19.207031 75.691406 -19 76.609375 -19 L 83.859375 -19 L 83.859375 0 L 70.609375 0 C 65.691406 0 61.734375 -0.914062 58.734375 -2.75 C 55.734375 -4.582031 53.441406 -7.039062 51.859375 -10.125 L 40.609375 -33.734375 C 40.109375 -33.734375 39.628906 -33.734375 39.171875 -33.734375 C 38.710938 -33.734375 38.191406 -33.734375 37.609375 -33.734375 L 30.5 -33.734375 L 30.5 0 Z M 6.625 0 "/></g></g></g><g fill="#1b365d" fill-opacity="1"><g transform="translate(237.305334, 143.073964)"><g><path d="M 44.484375 1.5 C 36.984375 1.5 30.359375 0.0195312 24.609375 -2.9375 C 18.867188 -5.894531 14.375 -10.101562 11.125 -15.5625 C 7.875 -21.019531 6.25 -27.453125 6.25 -34.859375 L 6.25 -87.484375 L 29.875 -87.484375 L 29.875 -33.734375 C 29.875 -30.828125 30.472656 -28.1875 31.671875 -25.8125 C 32.878906 -23.4375 34.566406 -21.5625 36.734375 -20.1875 C 38.898438 -18.8125 41.484375 -18.125 44.484375 -18.125 C 47.398438 -18.125 49.941406 -18.8125 52.109375 -20.1875 C 54.273438 -21.5625 55.941406 -23.4375 57.109375 -25.8125 C 58.273438 -28.1875 58.859375 -30.828125 58.859375 -33.734375 L 58.859375 -87.484375 L 82.484375 -87.484375 L 82.484375 -34.859375 C 82.484375 -27.453125 80.859375 -21.019531 77.609375 -15.5625 C 74.359375 -10.101562 69.878906 -5.894531 64.171875 -2.9375 C 58.460938 0.0195312 51.898438 1.5 44.484375 1.5 Z M 44.484375 1.5 "/></g></g></g><g fill="#1b365d" fill-opacity="1"><g transform="translate(324.776614, 143.073964)"><g><path d="M 6.625 0 L 6.625 -87.484375 L 47.234375 -87.484375 C 53.398438 -87.484375 58.984375 -86.171875 63.984375 -83.546875 C 68.984375 -80.921875 72.984375 -77.296875 75.984375 -72.671875 C 78.984375 -68.046875 80.484375 -62.648438 80.484375 -56.484375 C 80.484375 -51.148438 79.210938 -46.253906 76.671875 -41.796875 C 74.128906 -37.335938 70.734375 -33.738281 66.484375 -31 L 72.359375 -21.25 C 72.859375 -20.5 73.421875 -19.9375 74.046875 -19.5625 C 74.671875 -19.1875 75.523438 -19 76.609375 -19 L 83.609375 -19 L 83.609375 0 L 70.609375 0 C 66.441406 0 62.734375 -0.9375 59.484375 -2.8125 C 56.234375 -4.6875 53.734375 -7.125 51.984375 -10.125 L 43.109375 -25.375 C 42.609375 -25.375 42.109375 -25.375 41.609375 -25.375 C 41.109375 -25.375 40.648438 -25.375 40.234375 -25.375 L 30.5 -25.375 L 30.5 0 Z M 30.5 -44.359375 L 44.734375 -44.359375 C 46.816406 -44.359375 48.753906 -44.835938 50.546875 -45.796875 C 52.335938 -46.753906 53.753906 -48.148438 54.796875 -49.984375 C 55.835938 -51.816406 56.359375 -53.941406 56.359375 -56.359375 C 56.359375 -58.773438 55.816406 -60.859375 54.734375 -62.609375 C 53.648438 -64.359375 52.234375 -65.710938 50.484375 -66.671875 C 48.734375 -67.628906 46.816406 -68.109375 44.734375 -68.109375 L 30.5 -68.109375 Z M 30.5 -44.359375 "/></g></g></g><g fill="#1b365d" fill-opacity="1"><g transform="translate(408.998994, 143.073964)"><g><path d="M 50.234375 1.625 C 43.316406 1.625 36.984375 0.476562 31.234375 -1.8125 C 25.492188 -4.101562 20.5625 -7.3125 16.4375 -11.4375 C 12.3125 -15.5625 9.101562 -20.367188 6.8125 -25.859375 C 4.519531 -31.359375 3.375 -37.316406 3.375 -43.734375 C 3.375 -50.148438 4.519531 -56.128906 6.8125 -61.671875 C 9.101562 -67.210938 12.3125 -72.023438 16.4375 -76.109375 C 20.5625 -80.191406 25.492188 -83.378906 31.234375 -85.671875 C 36.984375 -87.960938 43.316406 -89.109375 50.234375 -89.109375 C 57.234375 -89.109375 63.585938 -87.960938 69.296875 -85.671875 C 75.003906 -83.378906 79.941406 -80.191406 84.109375 -76.109375 C 88.273438 -72.023438 91.476562 -67.210938 93.71875 -61.671875 C 95.96875 -56.128906 97.09375 -50.148438 97.09375 -43.734375 C 97.09375 -37.316406 95.96875 -31.359375 93.71875 -25.859375 C 91.476562 -20.367188 88.273438 -15.5625 84.109375 -11.4375 C 79.941406 -7.3125 75.003906 -4.101562 69.296875 -1.8125 C 63.585938 0.476562 57.234375 1.625 50.234375 1.625 Z M 50.234375 -18.125 C 53.648438 -18.125 56.753906 -18.769531 59.546875 -20.0625 C 62.335938 -21.351562 64.753906 -23.1875 66.796875 -25.5625 C 68.835938 -27.9375 70.378906 -30.660156 71.421875 -33.734375 C 72.460938 -36.816406 72.984375 -40.148438 72.984375 -43.734375 C 72.984375 -47.316406 72.460938 -50.671875 71.421875 -53.796875 C 70.378906 -56.921875 68.835938 -59.648438 66.796875 -61.984375 C 64.753906 -64.316406 62.335938 -66.128906 59.546875 -67.421875 C 56.753906 -68.710938 53.648438 -69.359375 50.234375 -69.359375 C 46.898438 -69.359375 43.816406 -68.710938 40.984375 -67.421875 C 38.148438 -66.128906 35.734375 -64.316406 33.734375 -61.984375 C 31.742188 -59.648438 30.207031 -56.921875 29.125 -53.796875 C 28.039062 -50.671875 27.5 -47.316406 27.5 -43.734375 C 27.5 -40.148438 28.039062 -36.816406 29.125 -33.734375 C 30.207031 -30.660156 31.742188 -27.9375 33.734375 -25.5625 C 35.734375 -23.1875 38.148438 -21.351562 40.984375 -20.0625 C 43.816406 -18.769531 46.898438 -18.125 50.234375 -18.125 Z M 50.234375 -18.125 "/></g></g></g><g fill="#1b365d" fill-opacity="1"><g transform="translate(508.341397, 143.073964)"><g><path d="M 45.984375 1.625 C 41.484375 1.625 37.546875 0.558594 34.171875 -1.5625 C 30.804688 -3.6875 28.414062 -6.664062 27 -10.5 L 0 -87.484375 L 25.25 -87.484375 L 44.734375 -22.375 C 44.898438 -21.957031 45.085938 -21.644531 45.296875 -21.4375 C 45.503906 -21.226562 45.734375 -21.125 45.984375 -21.125 C 46.316406 -21.125 46.609375 -21.226562 46.859375 -21.4375 C 47.109375 -21.644531 47.273438 -21.957031 47.359375 -22.375 L 66.859375 -87.484375 L 91.984375 -87.484375 L 65.109375 -10.625 C 63.773438 -6.707031 61.398438 -3.6875 57.984375 -1.5625 C 54.566406 0.558594 50.566406 1.625 45.984375 1.625 Z M 45.984375 1.625 "/></g></g></g><g fill="#1b365d" fill-opacity="1"><g transform="translate(599.061658, 143.073964)"><g><path d="M 0 0 L 28.125 -76.859375 C 29.707031 -80.941406 32.203125 -84.003906 35.609375 -86.046875 C 39.023438 -88.085938 42.898438 -89.109375 47.234375 -89.109375 C 51.566406 -89.109375 55.460938 -88.109375 58.921875 -86.109375 C 62.378906 -84.109375 64.859375 -81.066406 66.359375 -76.984375 L 94.46875 0 L 68.859375 0 L 63.734375 -16 L 30.25 -16 L 24.875 0 Z M 35.859375 -34.984375 L 58.234375 -34.984375 L 48.609375 -66.609375 C 48.523438 -66.941406 48.359375 -67.191406 48.109375 -67.359375 C 47.859375 -67.523438 47.566406 -67.609375 47.234375 -67.609375 C 46.984375 -67.609375 46.753906 -67.523438 46.546875 -67.359375 C 46.335938 -67.191406 46.148438 -66.941406 45.984375 -66.609375 Z M 35.859375 -34.984375 "/></g></g></g></g></g><path fill="#1b365d" d="M 844.015625 94.148438 L 875.152344 94.148438 L 875.152344 168.875 L 844.015625 168.875 Z M 844.015625 94.148438 " fill-opacity="1" fill-rule="nonzero"/><path fill="#ffffff" d="M 875.152344 105.433594 L 875.152344 111.894531 L 844.015625 120.222656 L 844.015625 113.761719 Z M 875.152344 105.433594 " fill-opacity="1" fill-rule="nonzero"/><path fill="#ffffff" d="M 875.152344 92.980469 L 875.152344 99.441406 L 844.015625 107.769531 L 844.015625 101.308594 Z M 875.152344 92.980469 " fill-opacity="1" fill-rule="nonzero"/><path fill="#ffffff" d="M 875.152344 142.796875 L 875.152344 149.257812 L 844.015625 157.585938 L 844.015625 151.125 Z M 875.152344 142.796875 " fill-opacity="1" fill-rule="nonzero"/><path fill="#ffffff" d="M 875.152344 117.890625 L 875.152344 124.347656 L 844.015625 132.679688 L 844.015625 126.21875 Z M 875.152344 117.890625 " fill-opacity="1" fill-rule="nonzero"/><path fill="#ffffff" d="M 875.152344 130.34375 L 875.152344 136.804688 L 844.015625 145.132812 L 844.015625 138.671875 Z M 875.152344 130.34375 " fill-opacity="1" fill-rule="nonzero"/><path fill="#ffffff" d="M 875.152344 155.25 L 875.152344 161.710938 L 848.375 168.875 L 844.015625 168.875 L 844.015625 163.582031 Z M 875.152344 155.25 " fill-opacity="1" fill-rule="nonzero"/><path fill="#1b365d" d="M 882.144531 103.675781 L 878.4375 107.894531 L 875.152344 108.78125 L 844.015625 117.109375 L 842.351562 117.5625 L 837.027344 115.757812 L 840.730469 111.539062 L 844.015625 110.648438 L 875.152344 102.320312 L 876.820312 101.871094 Z M 882.144531 103.675781 " fill-opacity="1" fill-rule="nonzero"/><path fill="#1b365d" d="M 871.632812 97.261719 L 844.015625 104.65625 L 842.351562 105.109375 L 837.027344 103.300781 L 840.730469 99.082031 L 847.535156 97.261719 Z M 871.632812 97.261719 " fill-opacity="1" fill-rule="nonzero"/><path fill="#1b365d" d="M 882.144531 141.039062 L 878.4375 145.257812 L 875.152344 146.144531 L 844.015625 154.472656 L 842.351562 154.925781 L 837.027344 153.117188 L 840.730469 148.898438 L 844.015625 148.011719 L 875.152344 139.683594 L 876.820312 139.234375 Z M 882.144531 141.039062 " fill-opacity="1" fill-rule="nonzero"/><path fill="#1b365d" d="M 882.144531 116.128906 L 878.4375 120.347656 L 875.152344 121.234375 L 844.015625 129.566406 L 842.351562 130.015625 L 837.027344 128.210938 L 840.730469 123.992188 L 844.015625 123.105469 L 875.152344 114.773438 L 876.820312 114.324219 Z M 882.144531 116.128906 " fill-opacity="1" fill-rule="nonzero"/><path fill="#1b365d" d="M 882.144531 128.585938 L 878.4375 132.804688 L 875.152344 133.691406 L 844.015625 142.019531 L 842.351562 142.46875 L 837.027344 140.664062 L 840.730469 136.445312 L 844.015625 135.558594 L 875.152344 127.230469 L 876.820312 126.777344 Z M 882.144531 128.585938 " fill-opacity="1" fill-rule="nonzero"/><path fill="#1b365d" d="M 882.144531 153.492188 L 878.4375 157.710938 L 875.152344 158.597656 L 844.015625 166.925781 L 842.351562 167.378906 L 837.027344 165.574219 L 840.730469 161.355469 L 844.015625 160.46875 L 875.152344 152.136719 L 876.820312 151.6875 Z M 882.144531 153.492188 " fill-opacity="1" fill-rule="nonzero"/><g clip-path="url(#46412f241f)"><path fill="#1b365d" d="M 890.71875 80.136719 L 890.71875 95.703125 C 890.71875 95.910156 890.679688 96.109375 890.601562 96.300781 C 890.523438 96.492188 890.410156 96.660156 890.265625 96.804688 C 890.117188 96.953125 889.949219 97.0625 889.757812 97.144531 C 889.570312 97.222656 889.371094 97.261719 889.164062 97.261719 L 872.039062 97.261719 L 872.039062 78.582031 L 889.164062 78.582031 C 889.371094 78.582031 889.570312 78.621094 889.757812 78.699219 C 889.949219 78.777344 890.117188 78.890625 890.265625 79.035156 C 890.410156 79.183594 890.523438 79.351562 890.601562 79.542969 C 890.679688 79.730469 890.71875 79.929688 890.71875 80.136719 Z M 890.71875 80.136719 " fill-opacity="1" fill-rule="nonzero"/></g><g clip-path="url(#715e99b894)"><path fill="#1b365d" d="M 847.128906 78.582031 L 872.039062 78.582031 L 872.039062 97.261719 L 847.128906 97.261719 Z M 847.128906 78.582031 " fill-opacity="1" fill-rule="nonzero"/></g><g clip-path="url(#4634fd2dba)"><path fill="#1b365d" d="M 847.128906 78.582031 L 847.128906 97.261719 L 830.003906 97.261719 C 829.800781 97.261719 829.601562 97.222656 829.410156 97.144531 C 829.21875 97.0625 829.050781 96.953125 828.90625 96.804688 C 828.757812 96.660156 828.648438 96.492188 828.566406 96.300781 C 828.488281 96.109375 828.449219 95.910156 828.449219 95.703125 L 828.449219 80.136719 C 828.449219 79.929688 828.488281 79.730469 828.566406 79.542969 C 828.648438 79.351562 828.757812 79.183594 828.90625 79.035156 C 829.050781 78.890625 829.21875 78.777344 829.410156 78.699219 C 829.601562 78.621094 829.800781 78.582031 830.003906 78.582031 Z M 847.128906 78.582031 " fill-opacity="1" fill-rule="nonzero"/></g></svg>