<svg xmlns="http://www.w3.org/2000/svg" xmlns:xlink="http://www.w3.org/1999/xlink" width="606" zoomAndPan="magnify" viewBox="0 0 454.5 98.999996" height="132" preserveAspectRatio="xMidYMid meet" version="1.0"><defs><g/><clipPath id="408d5f04dc"><path d="M 271 0.402344 L 410.003906 0.402344 L 410.003906 80.234375 L 271 80.234375 Z M 271 0.402344 " clip-rule="nonzero"/></clipPath><clipPath id="640b23050b"><path d="M 0.675781 22 L 38 22 L 38 59 L 0.675781 59 Z M 0.675781 22 " clip-rule="nonzero"/></clipPath><clipPath id="f822a35422"><rect x="0" width="140" y="0" height="81"/></clipPath><clipPath id="b4ac5089da"><path d="M 0.0546875 0.402344 L 279 0.402344 L 279 80.234375 L 0.0546875 80.234375 Z M 0.0546875 0.402344 " clip-rule="nonzero"/></clipPath><clipPath id="80a01c86c7"><path d="M 240 21 L 278.867188 21 L 278.867188 58 L 240 58 Z M 240 21 " clip-rule="nonzero"/></clipPath><clipPath id="174a516cbc"><rect x="0" width="279" y="0" height="81"/></clipPath><clipPath id="3a2b827f47"><path d="M 316 28 L 330 28 L 330 58.964844 L 316 58.964844 Z M 316 28 " clip-rule="nonzero"/></clipPath><clipPath id="12171daeed"><path d="M 316 53 L 330 53 L 330 58.964844 L 316 58.964844 Z M 316 53 " clip-rule="nonzero"/></clipPath><clipPath id="30e132e976"><path d="M 313 51 L 333 51 L 333 58.964844 L 313 58.964844 Z M 313 51 " clip-rule="nonzero"/></clipPath><clipPath id="a8e5e7b525"><path d="M 327 22.554688 L 335.449219 22.554688 L 335.449219 31 L 327 31 Z M 327 22.554688 " clip-rule="nonzero"/></clipPath><clipPath id="9be5c40fba"><path d="M 317 22.554688 L 328 22.554688 L 328 31 L 317 31 Z M 317 22.554688 " clip-rule="nonzero"/></clipPath><clipPath id="63cce193e0"><path d="M 310.472656 22.554688 L 318 22.554688 L 318 31 L 310.472656 31 Z M 310.472656 22.554688 " clip-rule="nonzero"/></clipPath><clipPath id="288700604a"><rect x="0" width="411" y="0" height="81"/></clipPath></defs><g transform="matrix(1, 0, 0, 1, 22, 9)"><g clip-path="url(#288700604a)"><g clip-path="url(#408d5f04dc)"><g transform="matrix(1, 0, 0, 1, 271, 0.000000000000003553)"><g clip-path="url(#f822a35422)"><g clip-path="url(#640b23050b)"><g fill="#333f48" fill-opacity="1"><g transform="translate(0.929979, 57.689548)"><g><path d="M 18.46875 0.65625 C 16.65625 0.65625 15.070312 0.226562 13.71875 -0.625 C 12.363281 -1.476562 11.40625 -2.675781 10.84375 -4.21875 L 0 -35.125 L 10.140625 -35.125 L 17.96875 -8.984375 C 18.03125 -8.816406 18.101562 -8.691406 18.1875 -8.609375 C 18.269531 -8.523438 18.363281 -8.484375 18.46875 -8.484375 C 18.59375 -8.484375 18.707031 -8.523438 18.8125 -8.609375 C 18.914062 -8.691406 18.984375 -8.816406 19.015625 -8.984375 L 26.84375 -35.125 L 36.921875 -35.125 L 26.140625 -4.265625 C 25.609375 -2.691406 24.65625 -1.476562 23.28125 -0.625 C 21.90625 0.226562 20.300781 0.65625 18.46875 0.65625 Z M 18.46875 0.65625 "/></g></g></g></g><g fill="#333f48" fill-opacity="1"><g transform="translate(37.858174, 57.689548)"><g/></g></g><g fill="#333f48" fill-opacity="1"><g transform="translate(51.154076, 57.689548)"><g/></g></g><g fill="#333f48" fill-opacity="1"><g transform="translate(64.451601, 57.689548)"><g><path d="M 2.65625 0 L 2.65625 -35.125 L 16.5 -35.125 C 20.21875 -35.125 23.4375 -34.367188 26.15625 -32.859375 C 28.882812 -31.359375 30.992188 -29.285156 32.484375 -26.640625 C 33.972656 -23.992188 34.71875 -20.96875 34.71875 -17.5625 C 34.71875 -14.144531 33.972656 -11.113281 32.484375 -8.46875 C 30.992188 -5.832031 28.882812 -3.757812 26.15625 -2.25 C 23.4375 -0.75 20.21875 0 16.5 0 Z M 12.234375 -7.78125 L 16.109375 -7.78125 C 17.847656 -7.78125 19.382812 -8.160156 20.71875 -8.921875 C 22.0625 -9.691406 23.113281 -10.820312 23.875 -12.3125 C 24.644531 -13.800781 25.03125 -15.550781 25.03125 -17.5625 C 25.03125 -19.601562 24.644531 -21.347656 23.875 -22.796875 C 23.113281 -24.253906 22.0625 -25.375 20.71875 -26.15625 C 19.382812 -26.945312 17.847656 -27.34375 16.109375 -27.34375 L 12.234375 -27.34375 Z M 12.234375 -7.78125 "/></g></g></g><g fill="#333f48" fill-opacity="1"><g transform="translate(100.576312, 57.689548)"><g><path d="M 0 0 L 11.28125 -30.859375 C 11.914062 -32.492188 12.921875 -33.71875 14.296875 -34.53125 C 15.671875 -35.351562 17.226562 -35.765625 18.96875 -35.765625 C 20.707031 -35.765625 22.269531 -35.363281 23.65625 -34.5625 C 25.039062 -33.757812 26.035156 -32.539062 26.640625 -30.90625 L 37.9375 0 L 27.640625 0 L 25.59375 -6.421875 L 12.140625 -6.421875 L 9.984375 0 Z M 14.40625 -14.046875 L 23.375 -14.046875 L 19.515625 -26.734375 C 19.484375 -26.867188 19.414062 -26.96875 19.3125 -27.03125 C 19.21875 -27.101562 19.101562 -27.140625 18.96875 -27.140625 C 18.863281 -27.140625 18.769531 -27.101562 18.6875 -27.03125 C 18.601562 -26.96875 18.53125 -26.867188 18.46875 -26.734375 Z M 14.40625 -14.046875 "/></g></g></g></g></g></g><g clip-path="url(#b4ac5089da)"><g transform="matrix(1, 0, 0, 1, 0, 0.000000000000003553)"><g clip-path="url(#174a516cbc)"><g fill="#1b365d" fill-opacity="1"><g transform="translate(0.376707, 57.692061)"><g><path d="M 20.671875 0 C 17.660156 0 14.96875 -0.429688 12.59375 -1.296875 C 10.21875 -2.171875 8.191406 -3.394531 6.515625 -4.96875 C 4.847656 -6.539062 3.570312 -8.394531 2.6875 -10.53125 C 1.800781 -12.675781 1.359375 -15.019531 1.359375 -17.5625 C 1.359375 -20.09375 1.800781 -22.425781 2.6875 -24.5625 C 3.570312 -26.707031 4.847656 -28.566406 6.515625 -30.140625 C 8.191406 -31.710938 10.21875 -32.929688 12.59375 -33.796875 C 14.96875 -34.671875 17.660156 -35.109375 20.671875 -35.109375 L 26.03125 -35.109375 L 26.03125 -27.328125 L 20.96875 -27.328125 C 19.394531 -27.328125 18 -27.078125 16.78125 -26.578125 C 15.5625 -26.078125 14.53125 -25.382812 13.6875 -24.5 C 12.851562 -23.613281 12.21875 -22.578125 11.78125 -21.390625 C 11.351562 -20.203125 11.140625 -18.925781 11.140625 -17.5625 C 11.140625 -16.1875 11.351562 -14.894531 11.78125 -13.6875 C 12.21875 -12.488281 12.851562 -11.453125 13.6875 -10.578125 C 14.53125 -9.710938 15.5625 -9.03125 16.78125 -8.53125 C 18 -8.03125 19.394531 -7.78125 20.96875 -7.78125 L 26.03125 -7.78125 L 26.03125 0 Z M 10.234375 10.1875 L 15.1875 -1.609375 L 22.765625 -1.609375 L 17.796875 10.1875 Z M 10.234375 10.1875 "/></g></g></g><g fill="#1b365d" fill-opacity="1"><g transform="translate(26.855038, 57.692061)"><g><path d="M 17.859375 0.609375 C 14.847656 0.609375 12.1875 0.015625 9.875 -1.171875 C 7.570312 -2.359375 5.769531 -4.046875 4.46875 -6.234375 C 3.164062 -8.429688 2.515625 -11.019531 2.515625 -14 L 2.515625 -35.109375 L 11.984375 -35.109375 L 11.984375 -13.546875 C 11.984375 -12.367188 12.222656 -11.300781 12.703125 -10.34375 C 13.191406 -9.394531 13.867188 -8.644531 14.734375 -8.09375 C 15.609375 -7.539062 16.648438 -7.265625 17.859375 -7.265625 C 19.023438 -7.265625 20.039062 -7.539062 20.90625 -8.09375 C 21.78125 -8.644531 22.453125 -9.394531 22.921875 -10.34375 C 23.390625 -11.300781 23.625 -12.367188 23.625 -13.546875 L 23.625 -35.109375 L 33.109375 -35.109375 L 33.109375 -14 C 33.109375 -11.019531 32.453125 -8.429688 31.140625 -6.234375 C 29.835938 -4.046875 28.039062 -2.359375 25.75 -1.171875 C 23.457031 0.015625 20.828125 0.609375 17.859375 0.609375 Z M 17.859375 0.609375 "/></g></g></g><g fill="#1b365d" fill-opacity="1"><g transform="translate(61.958896, 57.692061)"><g><path d="M 2.65625 0 L 2.65625 -35.109375 L 12.234375 -35.109375 L 12.234375 -21.265625 L 17.203125 -21.265625 C 18.066406 -21.265625 18.832031 -21.457031 19.5 -21.84375 C 20.175781 -22.226562 20.722656 -22.769531 21.140625 -23.46875 C 21.554688 -24.175781 21.765625 -25.03125 21.765625 -26.03125 L 21.765625 -35.109375 L 31.34375 -35.109375 L 31.34375 -25.875 C 31.34375 -23.738281 30.832031 -21.800781 29.8125 -20.0625 C 28.789062 -18.320312 27.429688 -16.898438 25.734375 -15.796875 L 29.140625 -8.578125 C 29.304688 -8.273438 29.519531 -8.039062 29.78125 -7.875 C 30.050781 -7.707031 30.375 -7.625 30.75 -7.625 L 33.65625 -7.625 L 33.65625 0 L 28.34375 0 C 26.363281 0 24.769531 -0.363281 23.5625 -1.09375 C 22.363281 -1.832031 21.445312 -2.820312 20.8125 -4.0625 L 16.296875 -13.546875 C 16.097656 -13.546875 15.90625 -13.546875 15.71875 -13.546875 C 15.539062 -13.546875 15.332031 -13.546875 15.09375 -13.546875 L 12.234375 -13.546875 L 12.234375 0 Z M 2.65625 0 "/></g></g></g><g fill="#1b365d" fill-opacity="1"><g transform="translate(95.307564, 57.692061)"><g><path d="M 17.859375 0.609375 C 14.847656 0.609375 12.1875 0.015625 9.875 -1.171875 C 7.570312 -2.359375 5.769531 -4.046875 4.46875 -6.234375 C 3.164062 -8.429688 2.515625 -11.019531 2.515625 -14 L 2.515625 -35.109375 L 11.984375 -35.109375 L 11.984375 -13.546875 C 11.984375 -12.367188 12.222656 -11.300781 12.703125 -10.34375 C 13.191406 -9.394531 13.867188 -8.644531 14.734375 -8.09375 C 15.609375 -7.539062 16.648438 -7.265625 17.859375 -7.265625 C 19.023438 -7.265625 20.039062 -7.539062 20.90625 -8.09375 C 21.78125 -8.644531 22.453125 -9.394531 22.921875 -10.34375 C 23.390625 -11.300781 23.625 -12.367188 23.625 -13.546875 L 23.625 -35.109375 L 33.109375 -35.109375 L 33.109375 -14 C 33.109375 -11.019531 32.453125 -8.429688 31.140625 -6.234375 C 29.835938 -4.046875 28.039062 -2.359375 25.75 -1.171875 C 23.457031 0.015625 20.828125 0.609375 17.859375 0.609375 Z M 17.859375 0.609375 "/></g></g></g><g fill="#1b365d" fill-opacity="1"><g transform="translate(130.411414, 57.692061)"><g><path d="M 2.65625 0 L 2.65625 -35.109375 L 18.953125 -35.109375 C 21.429688 -35.109375 23.671875 -34.582031 25.671875 -33.53125 C 27.679688 -32.476562 29.285156 -31.019531 30.484375 -29.15625 C 31.691406 -27.300781 32.296875 -25.140625 32.296875 -22.671875 C 32.296875 -20.523438 31.785156 -18.554688 30.765625 -16.765625 C 29.742188 -14.984375 28.382812 -13.539062 26.6875 -12.4375 L 29.046875 -8.53125 C 29.242188 -8.226562 29.46875 -8 29.71875 -7.84375 C 29.96875 -7.695312 30.3125 -7.625 30.75 -7.625 L 33.546875 -7.625 L 33.546875 0 L 28.34375 0 C 26.664062 0 25.175781 -0.375 23.875 -1.125 C 22.570312 -1.875 21.566406 -2.851562 20.859375 -4.0625 L 17.296875 -10.1875 C 17.097656 -10.1875 16.898438 -10.1875 16.703125 -10.1875 C 16.503906 -10.1875 16.320312 -10.1875 16.15625 -10.1875 L 12.234375 -10.1875 L 12.234375 0 Z M 12.234375 -17.8125 L 17.953125 -17.8125 C 18.785156 -17.8125 19.5625 -18 20.28125 -18.375 C 21 -18.757812 21.566406 -19.320312 21.984375 -20.0625 C 22.410156 -20.800781 22.625 -21.65625 22.625 -22.625 C 22.625 -23.59375 22.40625 -24.425781 21.96875 -25.125 C 21.53125 -25.832031 20.957031 -26.375 20.25 -26.75 C 19.550781 -27.132812 18.785156 -27.328125 17.953125 -27.328125 L 12.234375 -27.328125 Z M 12.234375 -17.8125 "/></g></g></g><g fill="#1b365d" fill-opacity="1"><g transform="translate(164.21142, 57.692061)"><g><path d="M 20.15625 0.65625 C 17.382812 0.65625 14.84375 0.195312 12.53125 -0.71875 C 10.226562 -1.644531 8.25 -2.9375 6.59375 -4.59375 C 4.9375 -6.25 3.648438 -8.175781 2.734375 -10.375 C 1.816406 -12.582031 1.359375 -14.976562 1.359375 -17.5625 C 1.359375 -20.132812 1.816406 -22.53125 2.734375 -24.75 C 3.648438 -26.976562 4.9375 -28.910156 6.59375 -30.546875 C 8.25 -32.179688 10.226562 -33.457031 12.53125 -34.375 C 14.84375 -35.300781 17.382812 -35.765625 20.15625 -35.765625 C 22.96875 -35.765625 25.519531 -35.300781 27.8125 -34.375 C 30.101562 -33.457031 32.082031 -32.179688 33.75 -30.546875 C 35.425781 -28.910156 36.710938 -26.976562 37.609375 -24.75 C 38.515625 -22.53125 38.96875 -20.132812 38.96875 -17.5625 C 38.96875 -14.976562 38.515625 -12.582031 37.609375 -10.375 C 36.710938 -8.175781 35.425781 -6.25 33.75 -4.59375 C 32.082031 -2.9375 30.101562 -1.644531 27.8125 -0.71875 C 25.519531 0.195312 22.96875 0.65625 20.15625 0.65625 Z M 20.15625 -7.265625 C 21.53125 -7.265625 22.773438 -7.523438 23.890625 -8.046875 C 25.015625 -8.566406 25.984375 -9.300781 26.796875 -10.25 C 27.617188 -11.207031 28.238281 -12.300781 28.65625 -13.53125 C 29.082031 -14.769531 29.296875 -16.113281 29.296875 -17.5625 C 29.296875 -19 29.082031 -20.34375 28.65625 -21.59375 C 28.238281 -22.84375 27.617188 -23.9375 26.796875 -24.875 C 25.984375 -25.8125 25.015625 -26.539062 23.890625 -27.0625 C 22.773438 -27.582031 21.53125 -27.84375 20.15625 -27.84375 C 18.820312 -27.84375 17.585938 -27.582031 16.453125 -27.0625 C 15.316406 -26.539062 14.347656 -25.8125 13.546875 -24.875 C 12.742188 -23.9375 12.125 -22.84375 11.6875 -21.59375 C 11.25 -20.34375 11.03125 -19 11.03125 -17.5625 C 11.03125 -16.113281 11.25 -14.769531 11.6875 -13.53125 C 12.125 -12.300781 12.742188 -11.207031 13.546875 -10.25 C 14.347656 -9.300781 15.316406 -8.566406 16.453125 -8.046875 C 17.585938 -7.523438 18.820312 -7.265625 20.15625 -7.265625 Z M 20.15625 -7.265625 "/></g></g></g><g fill="#1b365d" fill-opacity="1"><g transform="translate(204.079372, 57.692061)"><g><path d="M 18.453125 0.65625 C 16.648438 0.65625 15.070312 0.226562 13.71875 -0.625 C 12.363281 -1.476562 11.398438 -2.675781 10.828125 -4.21875 L 0 -35.109375 L 10.125 -35.109375 L 17.953125 -8.984375 C 18.023438 -8.816406 18.101562 -8.6875 18.1875 -8.59375 C 18.269531 -8.507812 18.359375 -8.46875 18.453125 -8.46875 C 18.585938 -8.46875 18.703125 -8.507812 18.796875 -8.59375 C 18.898438 -8.6875 18.972656 -8.816406 19.015625 -8.984375 L 26.828125 -35.109375 L 36.921875 -35.109375 L 26.125 -4.265625 C 25.59375 -2.691406 24.640625 -1.476562 23.265625 -0.625 C 21.898438 0.226562 20.296875 0.65625 18.453125 0.65625 Z M 18.453125 0.65625 "/></g></g></g><g clip-path="url(#80a01c86c7)"><g fill="#1b365d" fill-opacity="1"><g transform="translate(240.487099, 57.692061)"><g><path d="M 0 0 L 11.28125 -30.84375 C 11.914062 -32.476562 12.914062 -33.707031 14.28125 -34.53125 C 15.65625 -35.351562 17.210938 -35.765625 18.953125 -35.765625 C 20.691406 -35.765625 22.253906 -35.363281 23.640625 -34.5625 C 25.035156 -33.757812 26.035156 -32.535156 26.640625 -30.890625 L 37.921875 0 L 27.640625 0 L 25.578125 -6.421875 L 12.140625 -6.421875 L 9.984375 0 Z M 14.390625 -14.046875 L 23.375 -14.046875 L 19.515625 -26.734375 C 19.472656 -26.867188 19.398438 -26.96875 19.296875 -27.03125 C 19.203125 -27.101562 19.085938 -27.140625 18.953125 -27.140625 C 18.859375 -27.140625 18.769531 -27.101562 18.6875 -27.03125 C 18.601562 -26.96875 18.523438 -26.867188 18.453125 -26.734375 Z M 14.390625 -14.046875 "/></g></g></g></g></g></g></g><g clip-path="url(#3a2b827f47)"><path fill="#1b365d" d="M 316.71875 28.828125 L 329.214844 28.828125 L 329.214844 58.816406 L 316.71875 58.816406 Z M 316.71875 28.828125 " fill-opacity="1" fill-rule="nonzero"/></g><path fill="#ffffff" d="M 329.214844 33.355469 L 329.214844 35.949219 L 316.71875 39.292969 L 316.71875 36.699219 Z M 329.214844 33.355469 " fill-opacity="1" fill-rule="nonzero"/><path fill="#ffffff" d="M 329.214844 28.359375 L 329.214844 30.949219 L 316.71875 34.292969 L 316.71875 31.699219 Z M 329.214844 28.359375 " fill-opacity="1" fill-rule="nonzero"/><path fill="#ffffff" d="M 329.214844 48.351562 L 329.214844 50.945312 L 316.71875 54.285156 L 316.71875 51.691406 Z M 329.214844 48.351562 " fill-opacity="1" fill-rule="nonzero"/><path fill="#ffffff" d="M 329.214844 38.355469 L 329.214844 40.949219 L 316.71875 44.289062 L 316.71875 41.695312 Z M 329.214844 38.355469 " fill-opacity="1" fill-rule="nonzero"/><path fill="#ffffff" d="M 329.214844 43.351562 L 329.214844 45.945312 L 316.71875 49.289062 L 316.71875 46.695312 Z M 329.214844 43.351562 " fill-opacity="1" fill-rule="nonzero"/><g clip-path="url(#12171daeed)"><path fill="#ffffff" d="M 329.214844 53.347656 L 329.214844 55.941406 L 318.46875 58.816406 L 316.71875 58.816406 L 316.71875 56.691406 Z M 329.214844 53.347656 " fill-opacity="1" fill-rule="nonzero"/></g><path fill="#1b365d" d="M 332.019531 32.652344 L 330.535156 34.34375 L 329.214844 34.699219 L 316.71875 38.042969 L 316.050781 38.222656 L 313.914062 37.5 L 315.402344 35.804688 L 316.71875 35.449219 L 329.214844 32.105469 L 329.882812 31.925781 Z M 332.019531 32.652344 " fill-opacity="1" fill-rule="nonzero"/><path fill="#1b365d" d="M 327.804688 30.078125 L 316.71875 33.042969 L 316.050781 33.226562 L 313.914062 32.5 L 315.402344 30.808594 L 318.132812 30.078125 Z M 327.804688 30.078125 " fill-opacity="1" fill-rule="nonzero"/><path fill="#1b365d" d="M 332.019531 47.644531 L 330.535156 49.339844 L 329.214844 49.695312 L 316.71875 53.035156 L 316.050781 53.21875 L 313.914062 52.492188 L 315.402344 50.800781 L 316.71875 50.445312 L 329.214844 47.101562 L 329.882812 46.921875 Z M 332.019531 47.644531 " fill-opacity="1" fill-rule="nonzero"/><path fill="#1b365d" d="M 332.019531 37.648438 L 330.535156 39.339844 L 329.214844 39.699219 L 316.71875 43.039062 L 316.050781 43.222656 L 313.914062 42.496094 L 315.402344 40.804688 L 316.71875 40.449219 L 329.214844 37.105469 L 329.882812 36.921875 Z M 332.019531 37.648438 " fill-opacity="1" fill-rule="nonzero"/><path fill="#1b365d" d="M 332.019531 42.648438 L 330.535156 44.339844 L 329.214844 44.695312 L 316.71875 48.039062 L 316.050781 48.21875 L 313.914062 47.496094 L 315.402344 45.800781 L 316.71875 45.445312 L 329.214844 42.101562 L 329.882812 41.921875 Z M 332.019531 42.648438 " fill-opacity="1" fill-rule="nonzero"/><g clip-path="url(#30e132e976)"><path fill="#1b365d" d="M 332.019531 52.644531 L 330.535156 54.335938 L 329.214844 54.691406 L 316.71875 58.035156 L 316.050781 58.214844 L 313.914062 57.492188 L 315.402344 55.796875 L 316.71875 55.441406 L 329.214844 52.097656 L 329.882812 51.917969 Z M 332.019531 52.644531 " fill-opacity="1" fill-rule="nonzero"/></g><g clip-path="url(#a8e5e7b525)"><path fill="#1b365d" d="M 335.460938 23.203125 L 335.460938 29.453125 C 335.460938 29.625 335.402344 29.769531 335.28125 29.894531 C 335.15625 30.015625 335.011719 30.078125 334.839844 30.078125 L 327.964844 30.078125 L 327.964844 22.578125 L 334.839844 22.578125 C 335.011719 22.578125 335.15625 22.640625 335.28125 22.761719 C 335.402344 22.882812 335.460938 23.03125 335.460938 23.203125 Z M 335.460938 23.203125 " fill-opacity="1" fill-rule="nonzero"/></g><g clip-path="url(#9be5c40fba)"><path fill="#1b365d" d="M 317.96875 22.578125 L 327.964844 22.578125 L 327.964844 30.078125 L 317.96875 30.078125 Z M 317.96875 22.578125 " fill-opacity="1" fill-rule="nonzero"/></g><g clip-path="url(#63cce193e0)"><path fill="#1b365d" d="M 317.96875 22.578125 L 317.96875 30.078125 L 311.097656 30.078125 C 310.925781 30.078125 310.777344 30.015625 310.65625 29.894531 C 310.53125 29.769531 310.472656 29.625 310.472656 29.453125 L 310.472656 23.203125 C 310.472656 23.03125 310.53125 22.882812 310.65625 22.761719 C 310.777344 22.640625 310.925781 22.578125 311.097656 22.578125 Z M 317.96875 22.578125 " fill-opacity="1" fill-rule="nonzero"/></g></g></g></svg>