<svg xmlns="http://www.w3.org/2000/svg" xmlns:xlink="http://www.w3.org/1999/xlink" width="438" zoomAndPan="magnify" viewBox="0 0 328.5 72" height="96" preserveAspectRatio="xMidYMid meet" version="1.0"><defs><g/><clipPath id="dd8271820f"><path d="M 196 0.765625 L 296.765625 0.765625 L 296.765625 58.515625 L 196 58.515625 Z M 196 0.765625 " clip-rule="nonzero"/></clipPath><clipPath id="c6372c62e5"><path d="M 73 16 L 100.765625 16 L 100.765625 43 L 73 43 Z M 73 16 " clip-rule="nonzero"/></clipPath><clipPath id="b94760b3c7"><rect x="0" width="101" y="0" height="59"/></clipPath><clipPath id="cfda7686c4"><path d="M 0.816406 0.765625 L 203 0.765625 L 203 58.515625 L 0.816406 58.515625 Z M 0.816406 0.765625 " clip-rule="nonzero"/></clipPath><clipPath id="9902a6cc10"><rect x="0" width="203" y="0" height="59"/></clipPath><clipPath id="c95a0024e4"><path d="M 237 16.785156 L 242.933594 16.785156 L 242.933594 23 L 237 23 Z M 237 16.785156 " clip-rule="nonzero"/></clipPath><clipPath id="b1560ddd6e"><path d="M 230 16.785156 L 238 16.785156 L 238 23 L 230 23 Z M 230 16.785156 " clip-rule="nonzero"/></clipPath><clipPath id="3ef6b56cdb"><path d="M 224.910156 16.785156 L 231 16.785156 L 231 23 L 224.910156 23 Z M 224.910156 16.785156 " clip-rule="nonzero"/></clipPath><clipPath id="0dfef56e46"><rect x="0" width="297" y="0" height="59"/></clipPath></defs><g transform="matrix(1, 0, 0, 1, 15, 6)"><g clip-path="url(#0dfef56e46)"><g clip-path="url(#dd8271820f)"><g transform="matrix(1, 0, 0, 1, 196, 0.000000000000000888)"><g clip-path="url(#b94760b3c7)"><g fill="#333f48" fill-opacity="1"><g transform="translate(1.09911, 42.138476)"><g><path d="M 13.328125 0.46875 C 12.023438 0.46875 10.882812 0.160156 9.90625 -0.453125 C 8.925781 -1.066406 8.226562 -1.929688 7.8125 -3.046875 L 0 -25.34375 L 7.3125 -25.34375 L 12.953125 -6.484375 C 13.003906 -6.359375 13.0625 -6.265625 13.125 -6.203125 C 13.1875 -6.148438 13.253906 -6.125 13.328125 -6.125 C 13.421875 -6.125 13.503906 -6.148438 13.578125 -6.203125 C 13.648438 -6.265625 13.695312 -6.359375 13.71875 -6.484375 L 19.375 -25.34375 L 26.640625 -25.34375 L 18.859375 -3.078125 C 18.472656 -1.941406 17.785156 -1.066406 16.796875 -0.453125 C 15.804688 0.160156 14.648438 0.46875 13.328125 0.46875 Z M 13.328125 0.46875 "/></g></g></g><g fill="#333f48" fill-opacity="1"><g transform="translate(27.746405, 42.138476)"><g/></g></g><g fill="#333f48" fill-opacity="1"><g transform="translate(37.340695, 42.138476)"><g/></g></g><g fill="#333f48" fill-opacity="1"><g transform="translate(46.936157, 42.138476)"><g><path d="M 1.921875 0 L 1.921875 -25.34375 L 11.90625 -25.34375 C 14.582031 -25.34375 16.90625 -24.796875 18.875 -23.703125 C 20.84375 -22.617188 22.363281 -21.125 23.4375 -19.21875 C 24.507812 -17.3125 25.046875 -15.128906 25.046875 -12.671875 C 25.046875 -10.210938 24.507812 -8.03125 23.4375 -6.125 C 22.363281 -4.21875 20.84375 -2.71875 18.875 -1.625 C 16.90625 -0.539062 14.582031 0 11.90625 0 Z M 8.828125 -5.609375 L 11.625 -5.609375 C 12.875 -5.609375 13.984375 -5.882812 14.953125 -6.4375 C 15.921875 -7 16.679688 -7.816406 17.234375 -8.890625 C 17.785156 -9.960938 18.0625 -11.222656 18.0625 -12.671875 C 18.0625 -14.140625 17.785156 -15.398438 17.234375 -16.453125 C 16.679688 -17.503906 15.921875 -18.3125 14.953125 -18.875 C 13.984375 -19.445312 12.875 -19.734375 11.625 -19.734375 L 8.828125 -19.734375 Z M 8.828125 -5.609375 "/></g></g></g><g clip-path="url(#c6372c62e5)"><g fill="#333f48" fill-opacity="1"><g transform="translate(73.00366, 42.138476)"><g><path d="M 0 0 L 8.140625 -22.265625 C 8.597656 -23.441406 9.320312 -24.328125 10.3125 -24.921875 C 11.300781 -25.515625 12.425781 -25.8125 13.6875 -25.8125 C 14.9375 -25.8125 16.0625 -25.519531 17.0625 -24.9375 C 18.070312 -24.363281 18.789062 -23.484375 19.21875 -22.296875 L 27.375 0 L 19.953125 0 L 18.46875 -4.640625 L 8.765625 -4.640625 L 7.203125 0 Z M 10.390625 -10.140625 L 16.875 -10.140625 L 14.078125 -19.296875 C 14.054688 -19.390625 14.007812 -19.457031 13.9375 -19.5 C 13.863281 -19.550781 13.78125 -19.578125 13.6875 -19.578125 C 13.613281 -19.578125 13.546875 -19.550781 13.484375 -19.5 C 13.421875 -19.457031 13.367188 -19.390625 13.328125 -19.296875 Z M 10.390625 -10.140625 "/></g></g></g></g></g></g></g><g clip-path="url(#cfda7686c4)"><g transform="matrix(1, 0, 0, 1, 0, 0.000000000000000888)"><g clip-path="url(#9902a6cc10)"><g fill="#1b365d" fill-opacity="1"><g transform="translate(1.146974, 42.140289)"><g><path d="M 14.90625 0 C 12.738281 0 10.796875 -0.3125 9.078125 -0.9375 C 7.367188 -1.5625 5.910156 -2.441406 4.703125 -3.578125 C 3.492188 -4.710938 2.570312 -6.050781 1.9375 -7.59375 C 1.300781 -9.144531 0.984375 -10.835938 0.984375 -12.671875 C 0.984375 -14.503906 1.300781 -16.191406 1.9375 -17.734375 C 2.570312 -19.273438 3.492188 -20.613281 4.703125 -21.75 C 5.910156 -22.882812 7.367188 -23.765625 9.078125 -24.390625 C 10.796875 -25.015625 12.738281 -25.328125 14.90625 -25.328125 L 18.78125 -25.328125 L 18.78125 -19.71875 L 15.125 -19.71875 C 13.988281 -19.71875 12.976562 -19.535156 12.09375 -19.171875 C 11.21875 -18.816406 10.476562 -18.316406 9.875 -17.671875 C 9.269531 -17.035156 8.8125 -16.289062 8.5 -15.4375 C 8.1875 -14.582031 8.03125 -13.660156 8.03125 -12.671875 C 8.03125 -11.679688 8.1875 -10.75 8.5 -9.875 C 8.8125 -9.007812 9.269531 -8.257812 9.875 -7.625 C 10.476562 -7 11.21875 -6.503906 12.09375 -6.140625 C 12.976562 -5.785156 13.988281 -5.609375 15.125 -5.609375 L 18.78125 -5.609375 L 18.78125 0 Z M 7.375 7.34375 L 10.96875 -1.15625 L 16.421875 -1.15625 L 12.84375 7.34375 Z M 7.375 7.34375 "/></g></g></g><g fill="#1b365d" fill-opacity="1"><g transform="translate(20.253673, 42.140289)"><g><path d="M 12.875 0.4375 C 10.707031 0.4375 8.789062 0.0078125 7.125 -0.84375 C 5.457031 -1.707031 4.15625 -2.925781 3.21875 -4.5 C 2.28125 -6.082031 1.8125 -7.945312 1.8125 -10.09375 L 1.8125 -25.328125 L 8.65625 -25.328125 L 8.65625 -9.765625 C 8.65625 -8.921875 8.828125 -8.15625 9.171875 -7.46875 C 9.523438 -6.78125 10.015625 -6.238281 10.640625 -5.84375 C 11.265625 -5.445312 12.007812 -5.25 12.875 -5.25 C 13.726562 -5.25 14.46875 -5.445312 15.09375 -5.84375 C 15.71875 -6.238281 16.195312 -6.78125 16.53125 -7.46875 C 16.875 -8.15625 17.046875 -8.921875 17.046875 -9.765625 L 17.046875 -25.328125 L 23.890625 -25.328125 L 23.890625 -10.09375 C 23.890625 -7.945312 23.414062 -6.082031 22.46875 -4.5 C 21.53125 -2.925781 20.234375 -1.707031 18.578125 -0.84375 C 16.929688 0.0078125 15.03125 0.4375 12.875 0.4375 Z M 12.875 0.4375 "/></g></g></g><g fill="#1b365d" fill-opacity="1"><g transform="translate(45.584531, 42.140289)"><g><path d="M 1.921875 0 L 1.921875 -25.328125 L 8.828125 -25.328125 L 8.828125 -15.34375 L 12.40625 -15.34375 C 13.039062 -15.34375 13.597656 -15.476562 14.078125 -15.75 C 14.554688 -16.03125 14.945312 -16.425781 15.25 -16.9375 C 15.550781 -17.445312 15.703125 -18.0625 15.703125 -18.78125 L 15.703125 -25.328125 L 22.609375 -25.328125 L 22.609375 -18.671875 C 22.609375 -17.128906 22.238281 -15.726562 21.5 -14.46875 C 20.769531 -13.21875 19.789062 -12.195312 18.5625 -11.40625 L 21.03125 -6.1875 C 21.144531 -5.96875 21.296875 -5.796875 21.484375 -5.671875 C 21.679688 -5.554688 21.914062 -5.5 22.1875 -5.5 L 24.28125 -5.5 L 24.28125 0 L 20.453125 0 C 19.023438 0 17.875 -0.265625 17 -0.796875 C 16.132812 -1.328125 15.472656 -2.039062 15.015625 -2.9375 L 11.765625 -9.765625 C 11.617188 -9.765625 11.476562 -9.765625 11.34375 -9.765625 C 11.207031 -9.765625 11.054688 -9.765625 10.890625 -9.765625 L 8.828125 -9.765625 L 8.828125 0 Z M 1.921875 0 "/></g></g></g><g fill="#1b365d" fill-opacity="1"><g transform="translate(69.648848, 42.140289)"><g><path d="M 12.875 0.4375 C 10.707031 0.4375 8.789062 0.0078125 7.125 -0.84375 C 5.457031 -1.707031 4.15625 -2.925781 3.21875 -4.5 C 2.28125 -6.082031 1.8125 -7.945312 1.8125 -10.09375 L 1.8125 -25.328125 L 8.65625 -25.328125 L 8.65625 -9.765625 C 8.65625 -8.921875 8.828125 -8.15625 9.171875 -7.46875 C 9.523438 -6.78125 10.015625 -6.238281 10.640625 -5.84375 C 11.265625 -5.445312 12.007812 -5.25 12.875 -5.25 C 13.726562 -5.25 14.46875 -5.445312 15.09375 -5.84375 C 15.71875 -6.238281 16.195312 -6.78125 16.53125 -7.46875 C 16.875 -8.15625 17.046875 -8.921875 17.046875 -9.765625 L 17.046875 -25.328125 L 23.890625 -25.328125 L 23.890625 -10.09375 C 23.890625 -7.945312 23.414062 -6.082031 22.46875 -4.5 C 21.53125 -2.925781 20.234375 -1.707031 18.578125 -0.84375 C 16.929688 0.0078125 15.03125 0.4375 12.875 0.4375 Z M 12.875 0.4375 "/></g></g></g><g fill="#1b365d" fill-opacity="1"><g transform="translate(94.9797, 42.140289)"><g><path d="M 1.921875 0 L 1.921875 -25.328125 L 13.671875 -25.328125 C 15.460938 -25.328125 17.082031 -24.945312 18.53125 -24.1875 C 19.976562 -23.425781 21.132812 -22.375 22 -21.03125 C 22.875 -19.695312 23.3125 -18.140625 23.3125 -16.359375 C 23.3125 -14.816406 22.941406 -13.398438 22.203125 -12.109375 C 21.460938 -10.816406 20.476562 -9.769531 19.25 -8.96875 L 20.953125 -6.15625 C 21.097656 -5.9375 21.257812 -5.769531 21.4375 -5.65625 C 21.625 -5.550781 21.875 -5.5 22.1875 -5.5 L 24.203125 -5.5 L 24.203125 0 L 20.453125 0 C 19.242188 0 18.164062 -0.269531 17.21875 -0.8125 C 16.28125 -1.351562 15.554688 -2.0625 15.046875 -2.9375 L 12.484375 -7.34375 C 12.335938 -7.34375 12.191406 -7.34375 12.046875 -7.34375 C 11.898438 -7.34375 11.769531 -7.34375 11.65625 -7.34375 L 8.828125 -7.34375 L 8.828125 0 Z M 8.828125 -12.84375 L 12.953125 -12.84375 C 13.554688 -12.84375 14.117188 -12.976562 14.640625 -13.25 C 15.160156 -13.53125 15.570312 -13.9375 15.875 -14.46875 C 16.175781 -15 16.328125 -15.617188 16.328125 -16.328125 C 16.328125 -17.023438 16.164062 -17.625 15.84375 -18.125 C 15.53125 -18.632812 15.117188 -19.023438 14.609375 -19.296875 C 14.109375 -19.578125 13.554688 -19.71875 12.953125 -19.71875 L 8.828125 -19.71875 Z M 8.828125 -12.84375 "/></g></g></g><g fill="#1b365d" fill-opacity="1"><g transform="translate(119.369701, 42.140289)"><g><path d="M 14.546875 0.46875 C 12.546875 0.46875 10.710938 0.136719 9.046875 -0.515625 C 7.378906 -1.179688 5.945312 -2.113281 4.75 -3.3125 C 3.5625 -4.507812 2.632812 -5.898438 1.96875 -7.484375 C 1.3125 -9.078125 0.984375 -10.804688 0.984375 -12.671875 C 0.984375 -14.523438 1.3125 -16.253906 1.96875 -17.859375 C 2.632812 -19.460938 3.5625 -20.851562 4.75 -22.03125 C 5.945312 -23.21875 7.378906 -24.140625 9.046875 -24.796875 C 10.710938 -25.460938 12.546875 -25.796875 14.546875 -25.796875 C 16.578125 -25.796875 18.414062 -25.460938 20.0625 -24.796875 C 21.71875 -24.140625 23.144531 -23.21875 24.34375 -22.03125 C 25.550781 -20.851562 26.484375 -19.460938 27.140625 -17.859375 C 27.796875 -16.253906 28.125 -14.523438 28.125 -12.671875 C 28.125 -10.804688 27.796875 -9.078125 27.140625 -7.484375 C 26.484375 -5.898438 25.550781 -4.507812 24.34375 -3.3125 C 23.144531 -2.113281 21.71875 -1.179688 20.0625 -0.515625 C 18.414062 0.136719 16.578125 0.46875 14.546875 0.46875 Z M 14.546875 -5.25 C 15.535156 -5.25 16.429688 -5.4375 17.234375 -5.8125 C 18.046875 -6.1875 18.75 -6.71875 19.34375 -7.40625 C 19.9375 -8.09375 20.382812 -8.878906 20.6875 -9.765625 C 20.988281 -10.660156 21.140625 -11.628906 21.140625 -12.671875 C 21.140625 -13.703125 20.988281 -14.671875 20.6875 -15.578125 C 20.382812 -16.484375 19.9375 -17.273438 19.34375 -17.953125 C 18.75 -18.628906 18.046875 -19.148438 17.234375 -19.515625 C 16.429688 -19.890625 15.535156 -20.078125 14.546875 -20.078125 C 13.578125 -20.078125 12.679688 -19.890625 11.859375 -19.515625 C 11.046875 -19.148438 10.347656 -18.628906 9.765625 -17.953125 C 9.191406 -17.273438 8.75 -16.484375 8.4375 -15.578125 C 8.125 -14.671875 7.96875 -13.703125 7.96875 -12.671875 C 7.96875 -11.628906 8.125 -10.660156 8.4375 -9.765625 C 8.75 -8.878906 9.191406 -8.09375 9.765625 -7.40625 C 10.347656 -6.71875 11.046875 -6.1875 11.859375 -5.8125 C 12.679688 -5.4375 13.578125 -5.25 14.546875 -5.25 Z M 14.546875 -5.25 "/></g></g></g><g fill="#1b365d" fill-opacity="1"><g transform="translate(148.138318, 42.140289)"><g><path d="M 13.3125 0.46875 C 12.007812 0.46875 10.867188 0.160156 9.890625 -0.453125 C 8.921875 -1.066406 8.226562 -1.929688 7.8125 -3.046875 L 0 -25.328125 L 7.3125 -25.328125 L 12.953125 -6.484375 C 13.003906 -6.359375 13.054688 -6.265625 13.109375 -6.203125 C 13.171875 -6.140625 13.238281 -6.109375 13.3125 -6.109375 C 13.414062 -6.109375 13.5 -6.140625 13.5625 -6.203125 C 13.632812 -6.265625 13.6875 -6.359375 13.71875 -6.484375 L 19.359375 -25.328125 L 26.640625 -25.328125 L 18.859375 -3.078125 C 18.472656 -1.941406 17.785156 -1.066406 16.796875 -0.453125 C 15.804688 0.160156 14.644531 0.46875 13.3125 0.46875 Z M 13.3125 0.46875 "/></g></g></g><g fill="#1b365d" fill-opacity="1"><g transform="translate(174.410044, 42.140289)"><g><path d="M 0 0 L 8.140625 -22.25 C 8.597656 -23.4375 9.320312 -24.320312 10.3125 -24.90625 C 11.300781 -25.5 12.421875 -25.796875 13.671875 -25.796875 C 14.929688 -25.796875 16.0625 -25.503906 17.0625 -24.921875 C 18.0625 -24.347656 18.78125 -23.472656 19.21875 -22.296875 L 27.359375 0 L 19.9375 0 L 18.453125 -4.625 L 8.75 -4.625 L 7.203125 0 Z M 10.390625 -10.125 L 16.859375 -10.125 L 14.078125 -19.28125 C 14.054688 -19.382812 14.007812 -19.457031 13.9375 -19.5 C 13.863281 -19.550781 13.773438 -19.578125 13.671875 -19.578125 C 13.597656 -19.578125 13.53125 -19.550781 13.46875 -19.5 C 13.414062 -19.457031 13.363281 -19.382812 13.3125 -19.28125 Z M 10.390625 -10.125 "/></g></g></g></g></g></g><path fill="#1b365d" d="M 229.417969 21.3125 L 238.4375 21.3125 L 238.4375 42.949219 L 229.417969 42.949219 Z M 229.417969 21.3125 " fill-opacity="1" fill-rule="nonzero"/><path fill="#ffffff" d="M 238.4375 24.578125 L 238.4375 26.449219 L 229.417969 28.863281 L 229.417969 26.992188 Z M 238.4375 24.578125 " fill-opacity="1" fill-rule="nonzero"/><path fill="#ffffff" d="M 238.4375 20.972656 L 238.4375 22.84375 L 229.417969 25.257812 L 229.417969 23.386719 Z M 238.4375 20.972656 " fill-opacity="1" fill-rule="nonzero"/><path fill="#ffffff" d="M 238.4375 35.398438 L 238.4375 37.269531 L 229.417969 39.683594 L 229.417969 37.8125 Z M 238.4375 35.398438 " fill-opacity="1" fill-rule="nonzero"/><path fill="#ffffff" d="M 238.4375 28.1875 L 238.4375 30.058594 L 229.417969 32.46875 L 229.417969 30.597656 Z M 238.4375 28.1875 " fill-opacity="1" fill-rule="nonzero"/><path fill="#ffffff" d="M 238.4375 31.792969 L 238.4375 33.664062 L 229.417969 36.074219 L 229.417969 34.203125 Z M 238.4375 31.792969 " fill-opacity="1" fill-rule="nonzero"/><path fill="#ffffff" d="M 238.4375 39.007812 L 238.4375 40.878906 L 230.679688 42.949219 L 229.417969 42.949219 L 229.417969 41.417969 Z M 238.4375 39.007812 " fill-opacity="1" fill-rule="nonzero"/><path fill="#1b365d" d="M 240.460938 24.070312 L 239.386719 25.292969 L 238.4375 25.550781 L 229.417969 27.960938 L 228.9375 28.089844 L 227.394531 27.570312 L 228.46875 26.347656 L 229.417969 26.089844 L 238.4375 23.679688 L 238.917969 23.546875 Z M 240.460938 24.070312 " fill-opacity="1" fill-rule="nonzero"/><path fill="#1b365d" d="M 237.417969 22.210938 L 229.417969 24.355469 L 228.9375 24.484375 L 227.394531 23.960938 L 228.46875 22.742188 L 230.4375 22.210938 Z M 237.417969 22.210938 " fill-opacity="1" fill-rule="nonzero"/><path fill="#1b365d" d="M 240.460938 34.890625 L 239.386719 36.113281 L 238.4375 36.367188 L 229.417969 38.78125 L 228.9375 38.910156 L 227.394531 38.386719 L 228.46875 37.167969 L 229.417969 36.910156 L 238.4375 34.496094 L 238.917969 34.367188 Z M 240.460938 34.890625 " fill-opacity="1" fill-rule="nonzero"/><path fill="#1b365d" d="M 240.460938 27.675781 L 239.386719 28.898438 L 238.4375 29.15625 L 229.417969 31.566406 L 228.9375 31.699219 L 227.394531 31.175781 L 228.46875 29.953125 L 229.417969 29.695312 L 238.4375 27.285156 L 238.917969 27.152344 Z M 240.460938 27.675781 " fill-opacity="1" fill-rule="nonzero"/><path fill="#1b365d" d="M 240.460938 31.285156 L 239.386719 32.503906 L 238.4375 32.761719 L 229.417969 35.175781 L 228.9375 35.304688 L 227.394531 34.78125 L 228.46875 33.558594 L 229.417969 33.304688 L 238.4375 30.890625 L 238.917969 30.761719 Z M 240.460938 31.285156 " fill-opacity="1" fill-rule="nonzero"/><path fill="#1b365d" d="M 240.460938 38.496094 L 239.386719 39.71875 L 238.4375 39.976562 L 229.417969 42.386719 L 228.9375 42.519531 L 227.394531 41.996094 L 228.46875 40.773438 L 229.417969 40.515625 L 238.4375 38.105469 L 238.917969 37.972656 Z M 240.460938 38.496094 " fill-opacity="1" fill-rule="nonzero"/><g clip-path="url(#c95a0024e4)"><path fill="#1b365d" d="M 242.945312 17.253906 L 242.945312 21.761719 C 242.945312 21.886719 242.898438 21.992188 242.8125 22.082031 C 242.722656 22.167969 242.617188 22.210938 242.492188 22.210938 L 237.535156 22.210938 L 237.535156 16.804688 L 242.492188 16.804688 C 242.617188 16.804688 242.722656 16.847656 242.8125 16.933594 C 242.898438 17.023438 242.945312 17.128906 242.945312 17.253906 Z M 242.945312 17.253906 " fill-opacity="1" fill-rule="nonzero"/></g><g clip-path="url(#b1560ddd6e)"><path fill="#1b365d" d="M 230.320312 16.804688 L 237.535156 16.804688 L 237.535156 22.210938 L 230.320312 22.210938 Z M 230.320312 16.804688 " fill-opacity="1" fill-rule="nonzero"/></g><g clip-path="url(#3ef6b56cdb)"><path fill="#1b365d" d="M 230.320312 16.804688 L 230.320312 22.210938 L 225.363281 22.210938 C 225.238281 22.210938 225.132812 22.167969 225.042969 22.082031 C 224.953125 21.992188 224.910156 21.886719 224.910156 21.761719 L 224.910156 17.253906 C 224.910156 17.128906 224.953125 17.023438 225.042969 16.933594 C 225.132812 16.847656 225.238281 16.804688 225.363281 16.804688 Z M 230.320312 16.804688 " fill-opacity="1" fill-rule="nonzero"/></g></g></g></svg>